<svg id="Capa_1" enable-background="new 0 0 511.946 511.946" height="512" viewBox="0 0 511.946 511.946" width="512" xmlns="http://www.w3.org/2000/svg"><g><g><path d="m214.678 332.513c49.434-17.993 96.469-50.07 125.727-80.073 8.589-8.808 9.394-22.705 1.567-32.196-12.781-15.498-18.426-44.085-33.015-84.167-25.515-70.103-108.716-124.447-186.135-55.935-103.345-2.719-132.148 92.391-106.633 162.493 14.589 40.083 28.64 65.61 28.811 85.697.105 12.302 9.655 22.43 21.896 23.656 41.698 4.179 98.348-1.482 147.782-19.475z" fill="#565e75"/><path d="m84.551 406.284c-13.009-5.627-18.993-20.733-13.367-33.742 18.083-41.806 51.926-65.258 82.646-82.685 12.328-6.991 27.991-2.669 34.985 9.66 6.993 12.328 2.669 27.991-9.659 34.984-24.498 13.897-48.827 30.592-60.862 58.417-5.618 12.988-20.716 19.003-33.743 13.366z" fill="#c99b80"/><path d="m212.222 286.34c-.643-14.159 10.314-26.158 24.473-26.8 14.526-.659 35.605-9.83 57.831-25.163 21.945-15.139 38.542-31.81 44.675-40.893 7.932-11.746 23.884-14.84 35.63-6.905 11.746 7.932 14.838 23.884 6.905 35.63-11.199 16.583-33.448 37.434-58.066 54.416-21.482 14.82-53.605 32.781-84.65 34.189-14.149.645-26.155-10.309-26.798-24.474z" fill="#c99b80"/><path d="m199.145 250.621-25.207 9.174c-28.692 10.443-43.486 42.168-33.043 70.86l17.995 49.442c12.977 35.653 52.398 54.035 88.051 41.059 35.653-12.977 54.035-52.398 41.059-88.051l-17.995-49.442c-10.443-28.691-42.168-43.485-70.86-33.042z" fill="#d4d5d5"/><path d="m208.729 316.168c24.18-8.801 44.267-20.887 60.249-35.117-11.37-26.966-42.026-40.55-69.833-30.429l-25.207 9.175c-27.798 10.117-42.55 40.211-33.946 68.169 21.485.63 44.669-3.038 68.737-11.798z" fill="#939597"/><ellipse cx="164.107" cy="193.57" fill="#c99b80" rx="123.157" ry="100.466" transform="matrix(.94 -.342 .342 .94 -56.308 67.802)"/><g><g><ellipse cx="99.687" cy="249.443" fill="#f1bdc4" rx="29.387" ry="23.403" transform="matrix(.94 -.342 .342 .94 -79.302 49.138)"/><path d="m221.755 205.014c4.421 12.145 20.368 17.491 35.619 11.94s24.031-19.897 19.611-32.042c-4.421-12.145-20.368-17.491-35.619-11.94-15.252 5.551-24.032 19.897-19.611 32.042z" fill="#f1bdc4"/><path d="m190.643 197.203c-5.008-13.76-15.447-11.424-27.743-6.949s-21.794 9.396-16.786 23.156 19.036 21.286 31.333 16.81c12.296-4.475 18.204-19.257 13.196-33.017z" fill="#565e75"/></g></g><path d="m130.852 82.807c52.083-41.064 104.901-6.444 125.384 19.381 3.03 3.82 1.292 9.45-3.332 10.994-27.143 9.063-84.301 8.41-110.493 3.339-4.206-.814-8.513.753-11.211 4.08-16.834 20.758-60.328 58.096-86.933 68.522-4.478 1.755-9.342-1.528-9.475-6.335-.91-32.949 17.297-93.422 83.592-95.444 4.541-.138 8.9-1.724 12.468-4.537z" fill="#565e75"/></g><path d="m504.446 399.709h-277.599v-136.258c0-21.717 17.605-39.323 39.323-39.323h198.953c21.717 0 39.323 17.605 39.323 39.323z" fill="#f5df4d"/><path d="m504.446 399.709h-404.273c-12.455 0-22.551 10.096-22.551 22.551v18.533c0 12.455 10.096 22.551 22.551 22.551h381.721c12.455 0 22.551-10.096 22.551-22.551v-41.084z" fill="#fbf2b8"/><path d="m226.847 399.709h-126.674c-12.455 0-22.551 10.096-22.551 22.551v18.533c0 12.455 10.096 22.551 22.551 22.551h126.673v-63.635z" fill="#f5df4d"/><circle cx="365.646" cy="311.919" fill="#fff" r="28.74"/><path d="m329.407 311.918c0 19.983 16.257 36.24 36.239 36.24s36.24-16.257 36.24-36.24c0-19.982-16.257-36.239-36.24-36.239-19.982 0-36.239 16.257-36.239 36.239zm57.479 0c0 11.712-9.528 21.24-21.24 21.24-11.711 0-21.239-9.528-21.239-21.24 0-11.711 9.528-21.239 21.239-21.239 11.712 0 21.24 9.529 21.24 21.239zm-206.481-132.474c-6.065-.732-12.41.975-20.07 3.762-7.66 2.788-13.617 5.559-17.792 10.018-3.862 4.126-7.6 11.422-3.476 22.751 6.251 17.173 24.288 27.355 40.945 21.293 16.163-5.883 24.094-25.007 17.68-42.631-4.125-11.329-11.678-14.515-17.287-15.193zm-5.524 43.728c-8.705 3.172-18.284-2.889-21.719-12.328-1.839-5.051-.48-6.502.331-7.369 2.273-2.428 7.328-4.483 11.972-6.174 13.977-5.087 15.974-3.461 18.131 2.467 3.585 9.852-.324 20.351-8.715 23.404zm196.547-80.769c4.142 0 7.5-3.357 7.5-7.5v-37.69c0-4.143-3.358-7.5-7.5-7.5s-7.5 3.357-7.5 7.5v37.69c0 4.142 3.358 7.5 7.5 7.5zm67.302 41.717 24.946-24.946c2.929-2.93 2.929-7.678 0-10.607-2.929-2.928-7.678-2.928-10.607 0l-24.946 24.946c-2.929 2.93-2.929 7.678 0 10.607 2.931 2.929 7.678 2.927 10.607 0zm43.374 35.684c-3.86-1.5-8.207.409-9.71 4.268-1.502 3.86.409 8.207 4.269 9.71 12.322 4.796 20.283 16.441 20.283 29.668v128.76h-262.599v-128.759c0-17.548 14.276-31.823 31.823-31.823h177.135c4.142 0 7.5-3.357 7.5-7.5s-3.358-7.5-7.5-7.5h-50.853c3.629-13.141-1.148-27.977-13.422-36.264-14.786-9.988-34.378-6.386-44.849 7.275-5.37-15.269-10.252-32.355-18.177-54.128-27.571-75.753-115.907-129.369-195.93-60.919-53.352-.556-82.378 23.965-97.38 44.802-24.239 33.665-29.558 83.832-13.553 127.807 14.404 39.571 28.203 64.932 28.359 83.196.137 16.082 12.453 29.433 28.647 31.055.938.094 1.898.18 2.861.264-1.657 3.165-3.234 6.442-4.707 9.848-5.96 13.781-1.743 29.519 9.296 38.692-2.214 4.185-3.474 8.949-3.474 14.004v18.533c0 16.57 13.481 30.051 30.051 30.051h10.366c4.142 0 7.5-3.357 7.5-7.5s-3.358-7.5-7.5-7.5h-10.366c-8.299 0-15.051-6.752-15.051-15.051v-18.533c0-8.299 6.752-15.051 15.051-15.051h119.173v48.635h-72.948c-4.142 0-7.5 3.357-7.5 7.5s3.358 7.5 7.5 7.5h335.496c16.57 0 30.051-13.48 30.051-30.051v-177.342c0-19.457-11.713-36.59-29.842-43.647zm-136.687-22.123c5.615-8.315 16.896-10.511 25.218-4.887 7.853 5.303 10.259 15.666 5.727 23.833h-47.914c7.359-6.955 13.384-13.637 16.969-18.946zm-277.774 146.845c-8.562-.858-15.072-7.847-15.144-16.258-.188-22.002-14.345-47.209-29.263-88.198-23.819-65.441 1.719-154.943 99.389-152.431 1.885.041 3.745-.623 5.168-1.881 28.87-25.55 60.678-34.853 91.986-26.902 35.536 9.023 67.774 40.341 82.13 79.786 9.186 25.236 14.844 46.057 21.177 62.238-4.527 4.633-10.346 10.014-17.395 15.748h-18.75c13.587-37.812 4.068-81.978-30.286-109.058-1.956-1.542-4.549-2.013-6.922-1.256-26.422 8.428-81.594 7.55-105.896 2.844-6.94-1.342-14.011 1.232-18.462 6.719-15.59 19.225-57.29 55.361-82.948 65.891-2.304.945-3.988 2.973-4.496 5.411-9.853 47.357 16.886 93.569 63.545 110.87 5.726 2.123 11.634 3.791 17.696 5.014-13.91 10.219-29.074 23.848-41.539 42.244-3.457-.202-6.807-.462-9.99-.781zm42.58 47.684h-10.049c-6.072 0-11.725 1.816-16.456 4.925-6.451-4.949-9.009-13.845-5.649-21.615 6.735-15.571 19.358-38.156 52.021-61.775.474 14.958 5.656 23.227 10.455 37.878-22.622 19.412-27.671 36.257-30.322 40.587zm16.676 0c4.515-9.126 10.846-17.515 19.177-25.392 5.102 13.576 6.127 18.056 10.016 25.392zm92.448 0h-45.657c-3.237-4.521-5.846-9.44-7.752-14.678l-17.995-49.441c-2.648-7.273-3.477-14.962-2.477-22.532 25.396-.132 51.682-7.413 73.881-18.34zm0-128.759v6.859c-33.287 18.406-76.308 27.152-112.656 13.674-38.681-14.342-61.019-51.7-54.768-90.012 28.652-13.39 69.436-49.328 85.103-68.647.955-1.177 2.472-1.729 3.96-1.441 24.419 4.727 78.763 6.041 109.319-2.116 27.507 23.688 34.636 62.015 20.524 94.859h-4.658c-25.82 0-46.824 21.005-46.824 46.824zm277.599 177.342c0 8.299-6.752 15.051-15.051 15.051h-247.548v-48.634h262.599zm-258.805-284.247c-1.417-3.893-5.722-5.898-9.613-4.482-3.893 1.417-5.899 5.721-4.483 9.613l4.104 11.276c1.413 3.88 5.707 5.902 9.613 4.482 3.893-1.417 5.899-5.721 4.483-9.613zm-140.45 51.121c-1.417-3.894-5.722-5.898-9.613-4.482-3.892 1.417-5.899 5.721-4.482 9.613l4.104 11.276c1.411 3.876 5.702 5.903 9.613 4.482 3.892-1.417 5.899-5.721 4.482-9.613z"/></g></svg>